<svg width="13" height="12" viewBox="0 0 13 12" fill="none" xmlns="http://www.w3.org/2000/svg">
<path d="M7.51055 8.22098L7.40048 8.28808C6.72009 8.7029 6.04629 9.00848 5.37909 9.20481C4.71523 9.3991 4.0859 9.50372 3.4911 9.51865C2.895 9.53896 2.3587 9.48849 1.88219 9.36726C1.40771 9.24937 1.01661 9.08064 0.708897 8.86107L1.27851 8.12949C1.5345 8.23419 1.8408 8.30136 2.19742 8.33099C2.55606 8.36395 2.96124 8.34567 3.41296 8.27615C3.86133 8.20866 4.35209 8.07186 4.88524 7.86576C5.42042 7.663 5.99318 7.37556 6.60354 7.00344L6.73361 6.92413C7.34396 6.55201 7.86183 6.17452 8.2872 5.79165C8.71257 5.40879 9.05693 5.03185 9.32026 4.66086C9.58896 4.29116 9.78913 3.94037 9.92077 3.60849C10.0578 3.27791 10.1404 2.9782 10.1686 2.70936L11.0849 2.53504C11.1391 2.90915 11.1083 3.33511 10.9924 3.81293C10.8819 4.29204 10.6828 4.79088 10.3951 5.30944C10.1094 5.83133 9.72644 6.34386 9.24632 6.84704C8.76953 7.34818 8.19094 7.80616 7.51055 8.22098Z" fill="black"/>
<path d="M1.6925 3.77761C1.90596 3.64747 2.12913 3.61206 2.36202 3.67137C2.59694 3.73402 2.78964 3.88875 2.94011 4.13556C3.09059 4.38237 3.13885 4.62287 3.08491 4.85706C3.033 5.09458 2.90031 5.27841 2.68686 5.40855C2.4734 5.53869 2.24921 5.57244 2.01429 5.50979C1.7814 5.45048 1.58972 5.29742 1.43925 5.05061C1.28877 4.8038 1.23949 4.56163 1.2914 4.32411C1.34535 4.08992 1.47905 3.90775 1.6925 3.77761ZM5.81988 1.26123C6.03334 1.13109 6.25651 1.09568 6.4894 1.15499C6.72432 1.21764 6.91701 1.37237 7.06749 1.61918C7.21796 1.86599 7.26623 2.10649 7.21228 2.34068C7.16037 2.5782 7.02769 2.76203 6.81423 2.89217C6.60078 3.02231 6.37659 3.05606 6.14167 2.99341C5.90878 2.9341 5.7171 2.78104 5.56662 2.53423C5.41615 2.28742 5.36687 2.04525 5.41878 1.80773C5.47272 1.57354 5.60642 1.39137 5.81988 1.26123Z" fill="black"/>
</svg>
