<svg width="24" height="24" viewBox="0 0 24 24" fill="none" xmlns="http://www.w3.org/2000/svg">
<rect x="-0.728516" y="12" width="18" height="18" rx="3.6" transform="rotate(-45 -0.728516 12)" fill="#B90000"/>
<path d="M17 12C17 11.7441 16.9805 11.4927 16.9434 11.2471C16.8959 11.5638 16.8198 11.8713 16.7158 12.1661V12.167C16.0581 14.0277 14.3295 15.3818 12.2695 15.4913C12.2506 15.5009 12.2329 15.5131 12.2139 15.5225L12.2002 15.4962C12.1338 15.4988 12.067 15.5001 12 15.5001H11.8691L11.7627 15.4473C10.9534 15.0418 10.2394 14.4486 9.6875 13.7305L9.46094 13.4151C9.04313 12.7911 8.75901 12.0918 8.62109 11.3614C8.46161 11.6127 8.32824 11.8823 8.22754 12.167C8.08056 12.5836 8 13.0319 8 13.5C8 14.3336 8.25525 15.1074 8.69141 15.7481C9.57304 16.527 10.7311 17.0001 12 17.0001V18.0001L11.6914 17.9923C8.62331 17.8368 6.16323 15.3768 6.00781 12.3086L6 12C6.00002 8.6863 8.6863 6 12 6C15.3137 6 18 8.6863 18 12L17.9922 12.3086C17.8316 15.479 15.2102 18.0001 12 18.0001V17.0001C14.7614 17.0001 17 14.7615 17 12ZM11.9521 9.50002L11.9453 9.501H11.9072L11.8633 9.50295L11.8623 9.50198C10.9834 9.53258 10.1769 9.84475 9.52637 10.3487C9.52923 11.2418 9.79438 12.1152 10.292 12.8584L10.4805 13.1221C10.906 13.6755 11.4491 14.1373 12.0596 14.4708C13.543 13.6134 14.4735 12.0376 14.4932 10.3555C13.8903 9.8865 13.154 9.58209 12.3486 9.51467L12.1719 9.50295L12.1211 9.50198H12.1133C12.1005 9.50148 12.0866 9.50127 12.0654 9.501L12.0508 9.50002H11.9521ZM7 12C7 12.2556 7.01868 12.5068 7.05566 12.752C7.10317 12.4356 7.18025 12.1285 7.28418 11.834V11.833L7.40234 11.5323C7.69412 10.8516 8.13246 10.2495 8.67676 9.76467L8.66992 9.75686C8.74161 9.69384 8.8154 9.63318 8.89062 9.57424L9.58594 8.96389L9.57812 9.12014C10.2524 8.75035 11.0205 8.52987 11.8369 8.50295C11.842 8.50244 11.848 8.5024 11.8545 8.50197C11.8606 8.50156 11.8671 8.50217 11.874 8.50197L11.9238 8.50099L11.9932 8.50002H12.0781C12.0819 8.50017 12.0858 8.50075 12.0898 8.50099H12.0869C12.1052 8.50124 12.1283 8.50103 12.1523 8.50197H12.1514C12.1691 8.50245 12.1904 8.50305 12.2119 8.50392L12.4326 8.51759C13.458 8.6035 14.3968 8.99531 15.1562 9.60061L15.3154 9.73342L15.4785 9.87502L15.4883 10.0899C15.492 10.1751 15.4936 10.2593 15.4941 10.3428V10.3506C15.4833 11.5836 15.0689 12.764 14.3516 13.7344C14.9991 13.2629 15.5005 12.6026 15.7725 11.833C15.9194 11.4165 16 10.9682 16 10.5C16 9.6017 15.6653 8.76491 15.1162 8.09083C14.2615 7.40858 13.1787 7.00001 12 7.00001C9.23859 7.00001 7.00002 9.23859 7 12Z" fill="white"/>
</svg>
